<svg id="Capa_1" enable-background="new 0 0 510.027 510.027" height="40" viewBox="0 0 510.027 510.027" width="50" xmlns="http://www.w3.org/2000/svg"><g><path d="m510.013 263.013c0-22.957-16.311-41.658-37.385-46.014 23.724-23.618 37.385-55.861 37.385-89.986 0-70.028-56.972-127-127-127-58.636 0-109.1 40.018-123.17 96h-40.299c-6.276-18.58-23.86-32-44.531-32h-2.804c-6.747-27.521-31.625-48-61.196-48s-54.449 20.479-61.196 48c-31.997 0-49.804 23.319-49.804 47 0 25.916 21.084 47 47 47h125.919c-10.97 85.177-49.278 161.859-82.232 214.403-42.608 67.936-85.866 111.562-86.293 111.991-9.418 9.418-2.746 25.606 10.606 25.606h480c13.308 0 20.041-16.154 10.611-25.602-37.336-37.462-87.835-106.228-120.993-174.398h78.382c25.916 0 47-21.084 47-47zm-127-233c53.486 0 97 43.514 97 97 0 26.141-10.497 50.841-28.723 68.899-25.961-38.539-83.16-36.861-106.702 3.402-6.597-28.327-10.575-57.975-10.575-88.302 0-8.284-6.716-15-15-15h-27.924c13.079-38.613 49.94-65.999 91.924-65.999zm-119.663 172.531c-3.858-2.578-8.687-3.188-13.026-1.766-2.802.927-.552-.297-38.26 24.841l-15.604-27.304c4.908-22.975 8.336-48.546 9.26-72.301h98.587c.921 23.674 4.032 47.829 9.26 72.301l-15.604 27.304zm-216.337-74.531c-9.374 0-17-7.626-17-17 0-9.403 7.597-17 17-17h16c8.284 0 15-6.716 15-15 0-18.196 14.804-33 33-33s33 14.804 33 33c0 8.284 6.716 15 15 15 16.203 0 20.269-.894 25.979 3.267-5.284 2.321-8.979 7.592-8.979 13.733 0 5.687-.148 11.348-.418 16.983-.812.027 8.707.017-128.582.017zm414.137 352h-63.37c-62.07-71.439-63.749-128.104-63.767-129.086-.046-8.245-6.744-14.914-15-14.914-8.284 0-15 6.716-15 15 0 2.557.707 57.51 55.094 129h-89.094v-161c0-8.284-6.716-15-15-15s-15 6.716-15 15v161h-89.093c54.387-71.49 55.094-126.443 55.094-129 0-8.284-6.715-15.048-15-15.048-8.284 0-15 6.669-15 14.953-.008.579-1.471 57.396-63.767 129.095h-63.37c58.093-67.941 110.138-153.629 136.757-240.18l8.357 14.623c2.667 4.666 7.634 7.558 13.023 7.558 6.072 0 4.529.008 48-28.973 42.356 28.237 41.902 28.973 48 28.973 5.352 0 10.338-2.86 13.023-7.558l8.357-14.623c26.482 86.108 78.191 171.687 136.756 240.18zm-103.608-235.511c5.009-2.429 8.472-7.548 8.472-13.489 0-18.196 14.804-33 33-33s33 14.804 33 33c0 8.284 6.716 15 15 15 15.961 0 21.76-1.286 28.023 4.977 10.679 10.679 3.02 29.023-12.023 29.023h-91.976c-4.807-11.446-9.35-23.301-13.496-35.511z"/></g></svg>